<svg id="图层_1" data-name="图层 1" xmlns="http://www.w3.org/2000/svg" viewBox="0 0 111.93 102.39"><defs>
    <style>.cls-1{fill:none;stroke:#000;stroke-miterlimit:10;}</style></defs><title>path-2</title>
    <path class="cls-1" d="M164,118.31c-17.73,31.08-56.37,41.35-86.29,22.93C53.77,126.5,45.86,94.4,60.05,69.53,71.4,49.64,96.12,43.07,115.27,54.86c15.33,9.43,20.39,30,11.31,45.89-7.27,12.73-23.09,16.94-35.35,9.39-9.8-6-13-19.18-7.23-29.37a16.17,16.17,0,0,1,22.62-6,14,14,0,0,1,4.63,18.8A10.36,10.36,0,0,1,96.77,97.4a9,9,0,0,1-3-12" transform="translate(-52.5 -48.5)"/></svg>