<svg class="icon" width="200" height="200" viewBox="0 0 1024 1024" xmlns="http://www.w3.org/2000/svg"><path fill="#333" d="M800 845.088c0 1.76-.736 2.784-.096 2.88l-574.656.416c-.256-.192-1.248-1.344-1.248-3.296v-477.12h576v477.12zM224 210.88c0-1.728.64-2.752.096-2.912H352V224a32 32 0 1 0 64 0v-16h192v16a32 32 0 1 0 64 0v-16h127.008a4.736 4.736 0 0 1 .992 2.88V304H224v-93.12zM799.84 144H672v-16a32 32 0 0 0-64 0v16H416v-16a32 32 0 0 0-64 0v16H223.712C188.576 144 160 174.016 160 210.88v634.24c0 36.896 28.608 66.88 63.744 66.88h576.512C835.392 912 864 882.016 864 845.12V210.88c0-36.896-28.768-66.912-64.16-66.912zM384 560h256a32 32 0 0 0 0-64H384a32 32 0 0 0 0 64m0 160h256a32 32 0 0 0 0-64H384a32 32 0 0 0 0 64"/></svg>