<svg class="icon" width="200" height="200" viewBox="0 0 1024 1024" xmlns="http://www.w3.org/2000/svg"><path fill="#333" d="M799.84 144H672v-16a32 32 0 0 0-64 0v16H416v-16a32 32 0 0 0-64 0v16H223.712C188.576 144 160 174.016 160 210.912V304h704v-93.088C864 174.016 835.232 144 799.84 144M640 496a32 32 0 0 1 0 64H384a32 32 0 0 1 0-64h256zM352 688a32 32 0 0 1 32-32h256a32 32 0 0 1 0 64H384a32 32 0 0 1-32-32zm480-320H160v477.12c0 36.864 28.608 66.88 63.744 66.88h576.512C835.392 912 864 881.984 864 845.12V368h-32z"/></svg>