<svg class="icon" width="200" height="200" viewBox="0 0 1024 1024" xmlns="http://www.w3.org/2000/svg"><path fill="#333" d="M352.416 440.8V336.064C352.416 274.24 400.512 224 459.68 224s107.296 50.24 107.296 112.064V440.8c0 61.792-48.128 112.064-107.296 112.064-59.168 0-107.264-50.24-107.264-112.064m176.896 374.336l-307.84-.768V710.912c0-4.224 4.608-11.104 8.608-12.768 1.312-.64 134.912-61.536 237.12-61.536h31.648c16.96 0 30.72-14.336 30.72-32 0-1.216-.544-2.24-.672-3.424 58.56-27.616 99.52-89.056 99.52-160.384V336.064c0-97.088-75.68-176.064-168.736-176.064-93.024 0-168.704 78.976-168.704 176.064V440.8c0 60.16 29.088 113.312 73.312 145.088a912.416 912.416 0 0 0-158.08 53.28C179.84 650.24 160 681.088 160 710.912v113.76c0 3.52.544 6.976 1.632 10.304 8.64 26.432 31.936 44.16 58.048 44.16h309.632c16.96 0 30.72-14.336 30.72-32s-13.76-32-30.72-32M743.68 832c-67.776 0-122.88-57.408-122.88-128s55.104-128 122.88-128 122.88 57.408 122.88 128-55.104 128-122.88 128m0-320c-101.664 0-184.32 86.112-184.32 192s82.656 192 184.32 192C845.344 896 928 809.888 928 704s-82.656-192-184.32-192m60.8 168.448h-39.296V640c0-12.384-9.6-22.4-21.504-22.4a21.952 21.952 0 0 0-21.504 22.4v40.448H681.6a21.952 21.952 0 0 0-21.504 22.4c0 12.384 9.6 22.4 21.504 22.4h40.576V768c0 12.384 9.6 22.4 21.504 22.4a21.952 21.952 0 0 0 21.504-22.4v-42.752h39.296a21.952 21.952 0 0 0 21.504-22.4c0-12.384-9.6-22.4-21.504-22.4"/></svg>