<svg class="icon" width="200" height="200" viewBox="0 0 1024 1024" xmlns="http://www.w3.org/2000/svg"><path fill="#333" d="M896 320H768a32 32 0 0 0 0 64h128a32 32 0 0 0 0-64m0 128H768a32 32 0 0 0 0 64h128a32 32 0 0 0 0-64M768 256h128a32 32 0 0 0 0-64H768a32 32 0 0 0 0 64m0 579.36H193.504c-.416 0-.96-.256-1.504-.672V716c0-5.856 5.92-14.912 12.096-17.472 1.568-.64 156.896-68.64 275.904-68.64 118.752 0 274.368 67.968 276.672 68.992C761.984 701.088 768 710.208 768 716v119.36zM360.416 440.8V336.032a112 112 0 0 1 111.776-112 112 112 0 0 1 111.744 112V440.8a112 112 0 0 1-111.744 112.064A112.064 112.064 0 0 1 360.416 440.8zM781.76 640.032c-5.12-2.272-97.216-42.56-198.72-62.752a175.904 175.904 0 0 0 64.896-136.448V336.064c0-97.056-78.848-176.064-175.744-176.064-96.928 0-175.776 78.976-175.776 176v104.8c0 56.544 26.88 106.816 68.384 139.072-96.48 20.8-181.344 57.824-185.536 59.712C150.016 651.36 128 684.224 128 716.032v131.712l1.728 5.024c9.504 27.904 35.136 46.624 63.776 46.624h572.992c33.28 0 60.832-24.864 64.96-56.96l.544-126.4c0-31.584-21.952-64.416-50.24-76z"/></svg>