<svg class="icon" width="200" height="200" viewBox="0 0 1024 1024" xmlns="http://www.w3.org/2000/svg"><path fill="#333" d="M896 448H768a32 32 0 0 0 0 64h128a32 32 0 0 0 0-64m0-128H768a32 32 0 0 0 0 64h128a32 32 0 0 0 0-64m-128-64h128a32 32 0 0 0 0-64H768a32 32 0 0 0 0 64m13.76 384c-5.12-2.272-97.216-42.56-198.72-62.752 11.808-9.632 22.144-20.928 31.104-33.248a174.88 174.88 0 0 0 33.792-103.2V336.032A176.32 176.32 0 0 0 576 194.336 174.368 174.368 0 0 0 472.192 160c-96.928 0-175.776 78.976-175.776 176.032V440.8c0 56.544 26.88 106.816 68.384 139.072-96.48 20.832-181.344 57.824-185.536 59.712C150.016 651.328 128 684.192 128 716v131.712l1.728 5.024c9.504 27.904 35.136 46.624 63.776 46.624h572.992c33.28 0 60.832-24.864 64.96-56.96L832 716c0-15.232-5.184-30.72-13.664-44-9.088-14.272-21.952-26.016-36.576-32"/></svg>