<svg class="icon" width="200" height="200" viewBox="0 0 1024 1024" xmlns="http://www.w3.org/2000/svg"><path fill="#333" d="M812.896 528.896C812.16 530.944 730.816 736 504.16 736c-225.44 0-305.248-198.24-309.696-209.376-3.2-6.4-2.944-21.28 1.376-29.92C196.736 494.656 287.776 288 504.16 288c215.296 0 304.384 199.776 309.248 210.752 3.296 6.176 3.552 21.344-.512 30.144m58.112-57.888C866.72 460.928 762.24 224 504.16 224c-258.08 0-362.816 237.44-366.24 245.568-12.704 24.896-13.056 60.896-1.984 82.752.96 2.496 98.048 247.68 368.224 247.68 270.144 0 367.552-245.696 367.552-246.016 11.712-24.832 10.912-61.6-.704-82.976m-302.848 80.96a64.064 64.064 0 0 1-64 64.032c-35.296 0-64-28.704-64-64.032v-71.904c0-35.328 28.704-64.064 64-64.064s64 28.736 64 64.064v71.904zM504.16 352c-70.592 0-128 57.44-128 128.064v71.904A128.16 128.16 0 0 0 504.16 680c70.592 0 128-57.44 128-128.032v-71.904A128.16 128.16 0 0 0 504.16 352z"/></svg>