<svg class="icon" width="200" height="200" viewBox="0 0 1024 1024" xmlns="http://www.w3.org/2000/svg"><path fill="#333" d="M224 779.712L223.872 340h146.976l45.856-106.048C418.56 229.696 427.2 224 431.84 224h192.288c4.768 0 13.248 5.6 15.136 9.92L685.12 340l146.88.32.032 439.68L224 779.68zM832.032 276H727.2l-29.184-67.52c-12-27.584-43.744-48.48-73.888-48.48H431.84c-30.144 0-61.888 20.864-73.856 48.544L328.8 276H223.968A64.224 64.224 0 0 0 160 340.32v439.36c0 35.488 28.672 64.32 63.968 64.32h608.064A64.192 64.192 0 0 0 896 779.68V340.32c0-35.456-28.704-64.32-63.968-64.32zM528 640c-52.928 0-96-43.072-96-96s43.072-96 96-96 96 43.072 96 96-43.072 96-96 96m0-256c-88.224 0-160 71.776-160 160s71.776 160 160 160 160-71.776 160-160-71.776-160-160-160"/></svg>