<svg class="icon" width="200" height="200" viewBox="0 0 1024 1024" xmlns="http://www.w3.org/2000/svg"><path fill="#333" d="M528 384c88.224 0 160 71.776 160 160s-71.776 160-160 160-160-71.776-160-160 71.776-160 160-160m320-105.728a62.688 62.688 0 0 0-15.968-2.24H727.2L704.704 224l-6.688-15.488c-12-27.648-43.744-48.512-73.888-48.512H431.84c-30.144 0-61.888 20.864-73.856 48.544L351.296 224 328.8 276H223.968c-5.536 0-10.848.96-15.968 2.272a64.16 64.16 0 0 0-48 62.08v439.36c0 29.888 20.448 54.816 48 62.016 5.12 1.312 10.432 2.272 15.968 2.272h608.064c5.536 0 10.848-.96 15.968-2.24a64.224 64.224 0 0 0 48-62.048v-439.36c0-29.92-20.48-54.912-48-62.08"/></svg>