<svg class="icon" width="200" height="200" viewBox="0 0 1024 1024" xmlns="http://www.w3.org/2000/svg"><path fill="#333" d="M221.216 588H160v75.712C160 699.168 187.424 728 221.184 728h260.192v52h-91.808c-16.896 0-30.624 14.336-30.624 32 0 17.696 13.728 32 30.624 32h244.864c16.896 0 30.624-14.304 30.624-32 0-17.664-13.728-32-30.624-32h-91.808v-52h260.192c33.76 0 61.184-28.832 61.184-64.288V588H221.216zm581.6-428H221.184C187.424 160 160 188.864 160 224.32V524h704V224.32c0-35.456-27.424-64.32-61.184-64.32"/></svg>