<svg class="icon" width="200" height="200" viewBox="0 0 1024 1024" xmlns="http://www.w3.org/2000/svg"><path fill="#333" d="M221.216 663.68V588h581.6v76l-581.6-.32zm581.568-439.36V524H221.248V224l581.568.32zm0-64.32H221.216C187.424 160 160 188.864 160 224.32v439.36c0 35.488 27.424 64.32 61.184 64.32h260.192v52h-91.84c-16.864 0-30.592 14.336-30.592 32 0 17.696 13.728 32 30.624 32h244.864c16.896 0 30.624-14.304 30.624-32 0-17.664-13.728-32-30.624-32h-91.84v-52h260.224c33.76 0 61.184-28.832 61.184-64.32V224.32c0-35.456-27.424-64.32-61.184-64.32z"/></svg>