<svg class="icon" width="200" height="200" viewBox="0 0 1024 1024" xmlns="http://www.w3.org/2000/svg"><path fill="#333" d="M384 416.032c0-70.592 57.408-128 128-128s128 57.408 128 128-57.408 128-128 128-128-57.408-128-128m128.32-288h-.64c-158.624.16-287.68 129.312-287.68 288 0 80.512 64.032 195.008 126.72 288a2026.4 2026.4 0 0 0 116.512 155.584 57.92 57.92 0 0 0 44.8 21.856h.096a57.504 57.504 0 0 0 44.512-21.696 2024.256 2024.256 0 0 0 116.64-155.744C735.968 611.04 800 496.544 800 416.032c0-158.688-129.056-287.84-287.68-288"/></svg>