<svg class="icon" width="200" height="200" viewBox="0 0 1024 1024" xmlns="http://www.w3.org/2000/svg"><path fill="#333" d="M544 800.128l-320 .16-.064-96.32-.064-160-.032-64-.096-160-.032-96H799.84l.16-.192.256 576.224-256.256.128zM799.84 160H223.712A63.808 63.808 0 0 0 160 223.744v576.544c0 35.136 28.608 63.68 63.744 63.68h576.512A63.808 63.808 0 0 0 864 800.32V223.744A64 64 0 0 0 799.84 160zM680.608 320h-224a32 32 0 0 0 0 64h224a32 32 0 0 0 0-64m0 160h-224a32 32 0 0 0 0 64h224a32 32 0 0 0 0-64m0 160h-224a32 32 0 0 0 0 64h224a32 32 0 0 0 0-64M352 320a32 32 0 1 0 0 64 32 32 0 0 0 0-64m0 160a32 32 0 1 0 0 64 32 32 0 0 0 0-64m0 160a32 32 0 1 0 0 64 32 32 0 0 0 0-64"/></svg>