<svg class="icon" width="200" height="200" viewBox="0 0 1024 1024" xmlns="http://www.w3.org/2000/svg"><path fill="#333" d="M799.68 416H736v-64.16C736 228.416 635.52 128 512 128S288 228.416 288 351.84V416h-63.68c-35.456 0-64.32 28.672-64.32 63.904v192.192C160 707.328 188.864 736 224.32 736h94.784c.288 0 .576.192.896.192.32 0 .608-.192.928-.192h31.04V351.84A160.128 160.128 0 0 1 512 192c88.256 0 160 71.712 160 159.84v384.352c0 34.112-8.32 58.24-25.504 73.696-16.576 14.848-42.912 22.816-78.144 24.256A63.776 63.776 0 0 0 512 800a64 64 0 0 0 0 128c22.816 0 42.72-12 54.048-29.984 53.312-1.408 94.24-14.528 123.168-40.544C720.256 829.6 736 788.768 736 736.192V736h63.68A64.192 64.192 0 0 0 864 672.096V479.904A64.192 64.192 0 0 0 799.68 416"/></svg>