<svg class="icon" width="200" height="200" viewBox="0 0 1024 1024" xmlns="http://www.w3.org/2000/svg"><path fill="#333" d="M799.68 672H736V480h63.68l.32-.096L799.68 672zm-511.68.032l-64 .064.32-192.096H288v192.032zM799.68 416H736v-64.192C736 228.416 635.52 128 512 128S288 228.416 288 351.808V416h-63.68c-35.456 0-64.32 28.672-64.32 63.904v192.192C160 707.328 188.864 736 224.32 736h94.848c.288 0 .544.16.832.16.32 0 .544-.16.864-.16H352V351.808A160.064 160.064 0 0 1 512 192c88.224 0 160 71.68 160 159.808V736.16c0 34.144-8.352 58.24-25.536 73.664-16.544 14.88-42.912 22.944-78.144 24.384A63.68 63.68 0 0 0 512 800a64 64 0 0 0 0 128c22.816 0 42.72-12.032 54.048-29.984 53.312-1.44 94.208-14.56 123.2-40.576 31.04-27.872 46.72-68.672 46.72-121.28V736h63.744A64.16 64.16 0 0 0 864 672.096V479.904A64.16 64.16 0 0 0 799.68 416z"/></svg>