<svg class="icon" width="200" height="200" viewBox="0 0 1024 1024" xmlns="http://www.w3.org/2000/svg"><path fill="#333" d="M512 832c-176.448 0-320-143.552-320-320s143.552-320 320-320 320 143.552 320 320-143.552 320-320 320m0-704c-211.744 0-384 172.256-384 384s172.256 384 384 384 384-172.256 384-384-172.256-384-384-384m137.824 233.376a31.968 31.968 0 0 0-45.248 0L505.6 460.352l-98.976-98.976a31.968 31.968 0 1 0-45.248 45.248l98.976 98.976-98.976 98.976a32 32 0 0 0 45.248 45.248l98.976-98.976 98.976 98.976a31.904 31.904 0 0 0 45.248 0 31.968 31.968 0 0 0 0-45.248L550.848 505.6l98.976-98.976a31.968 31.968 0 0 0 0-45.248"/></svg>