<svg class="icon" width="200" height="200" viewBox="0 0 1024 1024" xmlns="http://www.w3.org/2000/svg"><path fill="#333" d="M224 831.936v-639.84l-.192-.096H576v159.936C576 387.264 604.736 416 640.064 416h159.712c.032.512.224 1.184.224 1.664L800.256 832 224 831.936zM757.664 352L640 351.936V224.128L757.664 352zm76.064-11.872l-163.872-178.08C651.712 142.336 619.264 128 592.672 128H223.808A64.032 64.032 0 0 0 160 192.096v639.84A64 64 0 0 0 223.744 896h576.512A64 64 0 0 0 864 831.872V417.664c0-25.856-12.736-58.464-30.272-77.536zM640 512H384a32 32 0 0 0 0 64h256a32 32 0 0 0 0-64m0 160H384a32 32 0 0 0 0 64h256a32 32 0 0 0 0-64"/></svg>