<svg class="icon" width="200" height="200" viewBox="0 0 1024 1024" xmlns="http://www.w3.org/2000/svg"><path fill="#333" d="M833.728 340.128L669.824 161.984c-7.744-8.448-18.4-15.552-29.824-21.28v211.2l202.4.064c-2.752-4.192-5.536-8.448-8.64-11.84M640 576H384a32 32 0 1 1 0-64h256a32 32 0 1 1 0 64m0 160H384a32 32 0 1 1 0-64h256a32 32 0 1 1 0 64m223.808-320H640.064A64.128 64.128 0 0 1 576 351.872V128H223.808A64 64 0 0 0 160 192.064v639.84A64 64 0 0 0 223.744 896h576.512A64 64 0 0 0 864 831.84V417.632c0-.544-.16-1.12-.192-1.664"/></svg>