<svg class="icon" width="200" height="200" viewBox="0 0 1024 1024" xmlns="http://www.w3.org/2000/svg"><path fill="#333" d="M763.712 488.064L624.288 627.488a31.904 31.904 0 0 1-45.248 0L476.704 525.152 342.496 658.016a31.936 31.936 0 0 1-45.248-.256 32 32 0 0 1 .224-45.248l156.832-155.264a32 32 0 0 1 45.152.128l102.208 102.24 116.8-116.8a31.968 31.968 0 1 1 45.248 45.248M800.256 160H223.744A63.808 63.808 0 0 0 160 223.744v576.512C160 835.424 188.576 864 223.744 864h576.512A63.808 63.808 0 0 0 864 800.256V223.744A63.84 63.84 0 0 0 800.256 160"/></svg>