<svg class="icon" width="200" height="200" viewBox="0 0 1024 1024" xmlns="http://www.w3.org/2000/svg"><path fill="#333" d="M712.32 624a224.8 224.8 0 0 1-193.984 112 224.928 224.928 0 0 1-194.048-111.936A32 32 0 1 1 379.68 592a160.736 160.736 0 0 0 138.656 80 160.608 160.608 0 0 0 138.592-80 32 32 0 0 1 55.392 32zM352 384a32 32 0 1 1 64 0v96a32 32 0 1 1-64 0v-96zm256 0a32 32 0 1 1 64 0v96a32 32 0 1 1-64 0v-96zm-96-256c-211.744 0-384 172.32-384 384 0 211.744 172.256 384 384 384 211.712 0 384-172.256 384-384 0-211.712-172.288-384-384-384z"/></svg>