<svg class="icon" width="200" height="200" viewBox="0 0 1024 1024" xmlns="http://www.w3.org/2000/svg"><path fill="#333" d="M704 767.392A318.016 318.016 0 0 1 512 832a318.016 318.016 0 0 1-192-64.608C242.464 708.928 192 616.384 192 512c0-176.448 143.552-320 320-320s320 143.552 320 320c0 104.384-50.464 196.928-128 255.392M512 128c-211.744 0-384 172.256-384 384 0 141.76 77.408 265.504 192 332.032A381.312 381.312 0 0 0 511.936 896h.128A381.312 381.312 0 0 0 704 844.032C818.592 777.504 896 653.76 896 512c0-211.744-172.256-384-384-384m127.936 275.84C639.936 339.904 582.528 288 512 288c-70.592 0-128 51.936-128 115.84v15.52a32 32 0 1 0 64 0v-15.552C448 375.232 476.736 352 512 352c35.296 0 64 23.232 64 51.84v49.152c.064 1.536-.544 31.616-39.808 59.008a169.44 169.44 0 0 1-32.16 17.6 31.584 31.584 0 0 0-24 30.4v37.184a32 32 0 0 0 64 0v-15.488c41.952-20.672 65.696-46.464 79.04-69.696 18.56-32.512 16.992-59.84 16.896-60.64v-47.52zM512 672a32 32 0 1 0 0 64 32 32 0 0 0 0-64"/></svg>