<svg class="icon" width="200" height="200" viewBox="0 0 1024 1024" xmlns="http://www.w3.org/2000/svg"><path fill="#333" d="M768 512H576V320h192v192zm-320 32a32 32 0 0 1-32 32H288a32 32 0 0 1 0-64h128c8.544 0 16.192 3.456 21.92 8.896A31.776 31.776 0 0 1 448 544zm128 128a32 32 0 0 1-32 32H288a32 32 0 0 1 0-64h256c8.544 0 16.192 3.456 21.92 8.896A31.776 31.776 0 0 1 576 672zm255.904-480h-639.84A64 64 0 0 0 128 255.776v512.448c0 8.064 1.664 15.712 4.416 22.816.256.64.352 1.344.608 1.984.768 1.792 1.888 3.392 2.816 5.12 1.024 1.92 1.888 3.936 3.104 5.696.64.96 1.472 1.696 2.144 2.592 1.792 2.368 3.584 4.8 5.696 6.848.992.992 2.176 1.728 3.2 2.656 2.048 1.792 4.032 3.648 6.304 5.152.448.32 1.024.512 1.504.832 2.976 1.92 6.048 3.68 9.376 5.056 3.232 1.376 6.688 2.336 10.176 3.136.608.16 1.184.448 1.824.576 4.16.864 8.48 1.312 12.928 1.312h639.84A64 64 0 0 0 896 768.224V255.808A64 64 0 0 0 831.904 192z"/></svg>