<svg class="icon" width="200" height="200" viewBox="0 0 1024 1024" xmlns="http://www.w3.org/2000/svg"><path fill="#333" d="M640 790.528H297.504v-.096l86.496.032v-118.88c0-.8.224-1.536.224-2.304 1.28-69.6 57.984-125.888 127.776-125.888s126.496 56.32 127.776 125.888c0 .768.224 1.504.224 2.304v118.944zm240.896-427.68L800 309.856V207.168a32 32 0 1 0-64 0v60.8L529.536 132.64a31.296 31.296 0 0 0-18.112-4.64 31.168 31.168 0 0 0-17.6 4.64l-351.36 230.24a32 32 0 0 0 35.072 53.536L192 406.912V800c0 30.08 27.168 54.592 60.576 54.592h518.848C804.832 854.56 832 830.08 832 800V407.36l13.856 9.056a31.968 31.968 0 0 0 35.04-53.536z"/></svg>