<svg class="icon" width="200" height="200" viewBox="0 0 1024 1024" xmlns="http://www.w3.org/2000/svg"><path fill="#333" d="M688 416a48 48 0 0 1-.064-96h.128a48 48 0 0 1-.064 96m-160 0a48 48 0 0 1-.064-96h.128a48 48 0 0 1-.064 96m362.848-256h-.032c-8.544-18.88-26.848-32-48.16-32H373.344c-21.312 0-39.648 13.12-48.16 32A56.512 56.512 0 0 0 320 183.264V320H160h53.344C183.936 320 160 344.832 160 375.36v377.152c0 30.56 24 55.36 53.44 55.36h61.088c1.376.064 3.488.96 5.408 2.144l.256 45.856c0 2.784.64 5.44 1.376 8.128a31.552 31.552 0 0 0 5.248 11.2c10.176 13.216 24.96 20.8 40.672 20.8h.064c14.784 0 28.736-6.72 38.816-18.464L380.608 864l44.864-42.688c1.984-1.856 4.768-5.824 6.208-8.128a15.84 15.84 0 0 1 9.056-5.28h241.952c15.296 0 29.088-6.752 38.848-17.504l-.352-.352h.544l-28.96-27.328-19.584-18.816h-.352l-79.84-75.392H384c-115.04-.992-118.016-94.976-118.016-94.976V355.2c.128-1.088.672-2.08.672-3.232 0-1.152-.544-2.112-.672-3.232v-.256h-.032A31.68 31.68 0 0 0 234.656 320H320v240.608c0 5.376.992 10.464 2.4 15.36 6.496 23.008 26.752 39.936 50.912 39.936h241.952a15.84 15.84 0 0 1 9.024 5.216 31.776 31.776 0 0 0 6.24 8.192l59.136 56.224C699.712 697.28 713.728 704 728.48 704c2.56 0 5.024-.512 7.52-.896a51.84 51.84 0 0 0 33.184-19.904 32.185 32.185 0 0 0 6.656-19.328l.256-45.856a13.216 13.216 0 0 1 5.344-2.112h61.12c24.256 0 44.544-16.96 51.072-39.904A56.32 56.32 0 0 0 896 560.512V183.36c0-8.384-1.92-16.256-5.152-23.392"/></svg>