<svg class="icon" width="200" height="200" viewBox="0 0 1024 1024" xmlns="http://www.w3.org/2000/svg"><path fill="#333" d="M224 352h64a32 32 0 0 0 0-64h-64a32 32 0 0 0 0 64m0 192h64a32 32 0 0 0 0-64h-64a32 32 0 0 0 0 64m160-192h64a32 32 0 0 0 0-64h-64a32 32 0 0 0 0 64m0 192h64a32 32 0 0 0 0-64h-64a32 32 0 0 0 0 64m160-192h64a32 32 0 0 0 0-64h-64a32 32 0 0 0 0 64m160 0h64a32 32 0 0 0 0-64h-64a32 32 0 0 0 0 64M544 544h64a32 32 0 0 0 0-64h-64a32 32 0 0 0 0 64m160 0h64a32 32 0 0 0 0-64h-64a32 32 0 0 0 0 64m75.776 128H224a32 32 0 0 0 0 64h555.776a32 32 0 0 0 0-64"/></svg>