<svg class="icon" width="200" height="200" viewBox="0 0 1024 1024" xmlns="http://www.w3.org/2000/svg"><path fill="#333" d="M394.304 316.608A124.672 124.672 0 0 1 518.72 192 124.704 124.704 0 0 1 643.2 316.608V416H394.304v-99.392zM544 704a32 32 0 0 1-64 0V576a32 32 0 0 1 64 0v128zm256.256-288H707.2v-99.392A188.736 188.736 0 0 0 518.72 128c-103.904 0-188.416 84.608-188.416 188.608V416h-106.56A64 64 0 0 0 160 480.096v319.84A64 64 0 0 0 223.744 864h576.512A64 64 0 0 0 864 799.936v-319.84A64 64 0 0 0 800.256 416z"/></svg>