<svg class="icon" width="200" height="200" viewBox="0 0 1024 1024" xmlns="http://www.w3.org/2000/svg"><path fill="#333" d="M448.544 496H256a32 32 0 0 0 0 64l146.976-.192-233.6 233.568a32 32 0 0 0 45.248 45.248l233.664-233.632v147.264a32 32 0 1 0 64 0V559.744A63.84 63.84 0 0 0 448.544 496m390.08-294.624a31.968 31.968 0 0 0-45.248 0L576 418.752V272a32 32 0 0 0-64 0v192.544c0 35.136 28.608 63.712 63.744 63.712h192.512a32 32 0 1 0 0-64l-147.488.224 217.856-217.856a31.968 31.968 0 0 0 0-45.248"/></svg>