<svg class="icon" width="200" height="200" viewBox="0 0 1024 1024" xmlns="http://www.w3.org/2000/svg"><path fill="#333" d="M512 832c-176.448 0-320-143.552-320-320s143.552-320 320-320 320 143.552 320 320-143.552 320-320 320m0-704c-211.744 0-384 172.256-384 384s172.256 384 384 384 384-172.256 384-384-172.256-384-384-384m188.64 452.288a32 32 0 0 0-43.712 11.68A160.608 160.608 0 0 1 518.304 672a160.576 160.576 0 0 1-138.592-80 32 32 0 0 0-55.424 32.032 224.896 224.896 0 0 0 194.016 112 224.768 224.768 0 0 0 194.016-112 32 32 0 0 0-11.68-43.744M384 512a32 32 0 0 0 32-32v-96a32 32 0 0 0-64 0v96a32 32 0 0 0 32 32m256 0a32 32 0 0 0 32-32v-96a32 32 0 0 0-64 0v96a32 32 0 0 0 32 32"/></svg>