<svg class="icon" width="200" height="200" viewBox="0 0 1024 1024" xmlns="http://www.w3.org/2000/svg"><path fill="#333" d="M688 544a48 48 0 1 1 0-96 48 48 0 0 1 0 96m-176 0a48 48 0 1 1 0-96 48 48 0 0 1 0 96m-176 0a48 48 0 1 1-.032-95.968A48 48 0 0 1 336 544m469.312-352H218.688C186.336 192 160 219.488 160 253.248V724.64c0 33.792 26.4 61.248 58.816 61.248H408.16c5.888 0 15.648 5.728 18.304 10.752l38.08 71.968 2.912 4.544c11.136 14.496 27.36 22.816 44.48 22.848h.032c17.152 0 33.376-8.32 44.576-22.816l40.992-76.544c2.432-4.576 11.936-10.752 18.336-10.752h189.504c32.32 0 58.624-27.456 58.624-61.248V253.248c0-33.76-26.336-61.248-58.688-61.248"/></svg>