<svg class="icon" width="200" height="200" viewBox="0 0 1024 1024" xmlns="http://www.w3.org/2000/svg"><path fill="#333" d="M512 832a318.432 318.432 0 0 1-215.648-84.256C351.264 729.984 443.008 704 509.952 704c68.064 0 162.048 26.976 216.608 44.704A318.24 318.24 0 0 1 512 832zM352 507.328v-91.264A160.224 160.224 0 0 1 512 256c88.224 0 160 71.808 160 160.064v95.104c0 10.24-1.184 20.192-3.008 29.888l-.928 4.576a159.296 159.296 0 0 1-22.528 53.28l-1.984 2.944a163.2 163.2 0 0 1-41.056 40.96l-2.016 1.376A159.136 159.136 0 0 1 512 671.008a159.232 159.232 0 0 1-88.672-26.88l-1.792-1.248a162.144 162.144 0 0 1-41.12-41.024l-2.048-3.04a159.264 159.264 0 0 1-22.432-53.184l-.928-4.608A160.896 160.896 0 0 1 352 511.168v-3.84zM512 128c-211.744 0-384 172.256-384 384s172.256 384 384 384 384-172.256 384-384-172.256-384-384-384z"/></svg>