<svg class="icon" width="200" height="200" viewBox="0 0 1024 1024" xmlns="http://www.w3.org/2000/svg"><path fill="#333" d="M512 832a318.432 318.432 0 0 1-215.648-84.256C351.264 729.984 443.008 704 509.952 704c68.064 0 162.048 26.976 216.608 44.704A318.24 318.24 0 0 1 512 832m0-224c-52.928 0-96-43.104-96-96.064v-95.872A96.16 96.16 0 0 1 512 320c52.928 0 96 43.104 96 96.064v95.872A96.16 96.16 0 0 1 512 608m0-416c176.448 0 320 143.552 320 320a318.016 318.016 0 0 1-59.136 184.704c-34.432-12-106.944-35.52-178.656-48.16C640.608 620.48 672 570.016 672 511.936v-95.872A160.224 160.224 0 0 0 512 256c-88.224 0-160 71.808-160 160.064v95.872C352 569.6 382.944 619.84 428.832 648c-70.656 12.16-142.464 35.104-178.528 47.584A317.952 317.952 0 0 1 192 512c0-176.448 143.552-320 320-320m0-64c-211.744 0-384 172.256-384 384s172.256 384 384 384 384-172.256 384-384-172.256-384-384-384"/></svg>