<svg xmlns="http://www.w3.org/2000/svg" xmlns:xlink="http://www.w3.org/1999/xlink" width="200" height="6000" viewBox="0 0 200 6000"><svg class="icon" width="200" height="200" viewBox="0 0 1024 1024" id="dynamic" y="0"><path fill="#333" d="M224 800.256V224l576-.288.256 576.32-576.256.192zM800.256 160H223.744A63.808 63.808 0 0 0 160 223.712v576.544C160 835.392 188.608 864 223.744 864h576.512A63.84 63.84 0 0 0 864 800.256V223.712a63.808 63.808 0 0 0-63.744-63.68zm-81.792 282.816l-116.8 116.768-102.176-102.208a32 32 0 0 0-45.152-.128l-156.832 155.2a32.032 32.032 0 0 0 45.024 45.536l134.208-132.832 102.336 102.336a32.96 32.96 0 0 0 45.248 0l139.392-139.424a31.968 31.968 0 1 0-45.248-45.248"></path></svg><svg class="icon" width="200" height="200" viewBox="0 0 1024 1024" id="editor" y="200"><path fill="#333" d="M489.376 534.624a31.904 31.904 0 0 0 45.248 0l304-304a31.968 31.968 0 1 0-45.248-45.248l-304 304a31.968 31.968 0 0 0 0 45.248M832 480a32 32 0 0 0-32 32l.256 288-576.256.256L223.744 224H512a32 32 0 0 0 0-64H223.744A63.84 63.84 0 0 0 160 223.744v576.512C160 835.392 188.608 864 223.744 864h576.512A63.84 63.84 0 0 0 864 800.256V512a32 32 0 0 0-32-32"></path></svg><svg class="icon" width="200" height="200" viewBox="0 0 1024 1024" id="eit" y="400"><path fill="#333" d="M597.696 426.944c-.032 1.28-.896 8.128-9.344 41.952l-22.304 84.384c-7.136 24.96-22.624 47.68-46.144 67.52-24.992 21.44-50.336 32.32-75.36 32.32-21.952 0-38.848-7.584-51.872-23.456-12.32-14.016-18.592-34.432-18.592-60.672 0-61.12 17.44-112.704 51.776-153.184l.16-.192c31.776-39.104 67.712-58.08 109.952-58.08 19.616 0 34.4 7.616 45.536 23.776 10.88 14.304 16.192 29.28 16.192 45.632M875.392 675.36a11.2 11.2 0 0 0-9.76-5.728h-53.504a11.2 11.2 0 0 0-9.12 4.704c-27.36 38.56-64.32 70.112-109.664 93.76-52.608 26.272-114.72 39.616-184.64 39.616-91.264 0-165.888-26.464-221.76-78.56-56.384-53.952-84.992-129.76-84.992-225.28 0-89.184 29.632-163.712 88.192-221.632 57.824-58.464 131.68-88.064 219.52-88.064 82.208 0 149.312 24.448 199.264 72.544 46.848 46.88 70.592 105.696 70.592 174.88 0 58.72-17.856 111.04-52.896 155.328-30.08 36.64-59.52 55.2-87.616 55.2-17.472 0-18.944-7.136-18.944-15.04 0-14.304 3.424-31.776 10.336-52.576L700.448 320a11.2 11.2 0 0 0-10.816-14.048h-48.64a11.2 11.2 0 0 0-10.784 8.16l-7.744 27.296c-19.584-35.808-50.88-53.92-93.312-53.92-60.896 0-114.496 27.2-159.136 80.64-47.04 53.696-70.848 120.96-70.848 199.904 0 43.52 13.088 80.064 38.72 108.512 25.504 28.992 60.384 43.712 103.776 43.712 45.504 0 86.176-18.464 121.152-54.912 11.648 43.072 44.128 52.928 71.36 52.928 51.296 0 99.712-27.52 144.064-82.144 44.768-58.144 67.456-123.584 67.456-194.528 0-88.864-29.216-163.168-86.88-220.8C697.92 159.168 615.04 128 512.64 128c-110.88 0-203.84 37.12-276.256 110.176C164.48 308.8 128 397.536 128 501.92c0 110.88 35.52 201.6 105.6 269.696 69.92 66.56 162.464 100.32 275.136 100.32 79.872 0 153.216-16.768 218.016-49.824 63.2-31.936 113.12-77.504 148.416-135.456a11.168 11.168 0 0 0 .224-11.296"></path></svg><svg class="icon" width="200" height="200" viewBox="0 0 1024 1024" id="emoji" y="600"><path fill="#333" d="M512 832c-176.448 0-320-143.552-320-320s143.552-320 320-320 320 143.552 320 320-143.552 320-320 320m0-704c-211.744 0-384 172.256-384 384s172.256 384 384 384 384-172.256 384-384-172.256-384-384-384m188.64 452.288a32 32 0 0 0-43.712 11.68A160.608 160.608 0 0 1 518.304 672a160.576 160.576 0 0 1-138.592-80 32 32 0 0 0-55.424 32.032 224.896 224.896 0 0 0 194.016 112 224.768 224.768 0 0 0 194.016-112 32 32 0 0 0-11.68-43.744M384 512a32 32 0 0 0 32-32v-96a32 32 0 0 0-64 0v96a32 32 0 0 0 32 32m256 0a32 32 0 0 0 32-32v-96a32 32 0 0 0-64 0v96a32 32 0 0 0 32 32"></path></svg><svg class="icon" width="200" height="200" viewBox="0 0 1024 1024" id="emoji_fill" y="800"><path fill="#333" d="M712.32 624a224.8 224.8 0 0 1-193.984 112 224.928 224.928 0 0 1-194.048-111.936A32 32 0 1 1 379.68 592a160.736 160.736 0 0 0 138.656 80 160.608 160.608 0 0 0 138.592-80 32 32 0 0 1 55.392 32zM352 384a32 32 0 1 1 64 0v96a32 32 0 1 1-64 0v-96zm256 0a32 32 0 1 1 64 0v96a32 32 0 1 1-64 0v-96zm-96-256c-211.744 0-384 172.32-384 384 0 211.744 172.256 384 384 384 211.712 0 384-172.256 384-384 0-211.712-172.288-384-384-384z"></path></svg><svg class="icon" width="200" height="200" viewBox="0 0 1024 1024" id="empty" y="1000"><path fill="#333" d="M590.208 454.176v210.496a32 32 0 1 0 64 0V454.176a32 32 0 1 0-64 0m-192 0v210.496a32 32 0 1 0 64 0V454.176a32 32 0 1 0-64 0m-20.544-194.592l-8.896-63.36 253.504-35.648 8.928 63.392-253.536 35.616zm443.616-62.336L694.56 215.04l-11.872-84.416a36.512 36.512 0 0 0-14.432-24.224c-16.416-12.384-41.28-11.072-54.752-9.216l-253.824 35.68c-46.592 6.56-60.16 30.688-57.28 51.072l11.84 84.544-126.72 17.824a32 32 0 1 0 8.928 63.36l45.92-6.432a31.36 31.36 0 0 0-4.192 14.976v447.936c0 35.328 28.704 64.032 64 64.032h447.968a64.096 64.096 0 0 0 64-64.032V358.208a32 32 0 1 0-64 0v447.968l-448-.032V358.208a31.744 31.744 0 0 0-8.992-22.112l537.056-75.488a32 32 0 0 0 27.2-36.16 31.648 31.648 0 0 0-36.16-27.2z"></path></svg><svg class="icon" width="200" height="200" viewBox="0 0 1024 1024" id="empty_fill" y="1200"><path fill="#333" d="M821.344 197.248l-126.752 17.824-11.904-84.512a36.48 36.48 0 0 0-14.464-24.192c-16.416-12.384-41.376-11.072-54.688-9.152l-253.792 35.648c-46.624 6.56-60.16 30.688-57.312 51.072l11.008 78.24.896 6.336-76.128 10.688-50.656 7.136a32 32 0 1 0 8.928 63.36l23.552-3.328 18.176-2.528 4.224-.608 50.752-7.136 63.936-8.992 73.088-10.272 192-26.976 192-27.008 16.032-2.24c17.504-2.432 29.696-18.624 27.232-36.128s-18.528-29.76-36.128-27.232zm-423.136 256.96a32 32 0 0 1 64 0v210.496a32 32 0 0 1-64 0V454.208zm192 0a32 32 0 0 1 64 0v210.496a32 32 0 0 1-64 0V454.208zm-352-40.736v392.704c0 20.608 9.984 38.816 25.184 50.56 10.816 8.32 24.192 13.44 38.848 13.44h447.936a63.36 63.36 0 0 0 38.816-13.44c15.232-11.712 25.216-29.888 25.216-50.56v-412H237.344l.864 19.328z"></path></svg><svg class="icon" width="200" height="200" viewBox="0 0 1024 1024" id="enter" y="1400"><path fill="#333" d="M693.792 498.24l-320-297.664a32 32 0 0 0-43.584 46.848l295.36 274.752-295.84 286.848a31.968 31.968 0 1 0 44.544 45.92l320-310.272a31.968 31.968 0 0 0-.48-46.4"></path></svg><svg class="icon" width="200" height="200" viewBox="0 0 1024 1024" id="enterinto" y="1600"><path fill="#333" d="M512 832c-176.448 0-320-143.552-320-320s143.552-320 320-320 320 143.552 320 320-143.552 320-320 320m0-704c-211.744 0-384 172.256-384 384s172.256 384 384 384 384-172.256 384-384-172.256-384-384-384m-42.624 232.192a31.968 31.968 0 1 0-42.752 47.616l134.016 120.32-134.496 125.856a32 32 0 0 0 43.712 46.72l160-149.696a31.968 31.968 0 0 0-.48-47.168l-160-143.68z"></path></svg><svg class="icon" width="200" height="200" viewBox="0 0 1024 1024" id="enterinto_fill" y="1800"><path fill="#333" d="M629.856 550.976l-160 149.76a31.904 31.904 0 0 1-45.216-1.504 31.936 31.936 0 0 1 1.504-45.216L560.64 528.128l-134.016-120.32a32 32 0 1 1 42.752-47.616l160 143.616a31.904 31.904 0 0 1 .48 47.168M512 128c-211.744 0-384 172.256-384 384 0 211.712 172.256 384 384 384s384-172.288 384-384c0-211.744-172.256-384-384-384"></path></svg><svg class="icon" width="200" height="200" viewBox="0 0 1024 1024" id="manage" y="2000"><path fill="#333" d="M224 423.84V231.744l192-.096.096 192.096L224 423.84zm192.096-256.096H223.904A64 64 0 0 0 160 231.68v192.192a64 64 0 0 0 63.904 63.904h192.192A64 64 0 0 0 480 423.84V231.68a64 64 0 0 0-63.904-63.904zM224 807.84V615.744l192-.096.096 192.096L224 807.84zm192.096-256.096H223.904A64 64 0 0 0 160 615.68v192.192a64 64 0 0 0 63.904 63.904h192.192A64 64 0 0 0 480 807.84V615.68a64 64 0 0 0-63.904-63.904zm287.968-88.128l-135.84-135.84 135.712-135.84L839.84 327.68 704.064 463.616zm181.024-181.024L749.184 146.688a64 64 0 0 0-90.368 0L522.912 282.56a63.456 63.456 0 0 0-18.656 45.056 63.456 63.456 0 0 0 18.656 45.312l135.904 135.936a63.904 63.904 0 0 0 90.368-.032l135.904-135.904a63.936 63.936 0 0 0 0-90.368zM608 807.84V615.744l192-.096.096 192.096L608 807.84zm192.096-256.096H607.904A64 64 0 0 0 544 615.68v192.192a64 64 0 0 0 63.904 63.904h192.192A64 64 0 0 0 864 807.84V615.68a64 64 0 0 0-63.904-63.904z"></path></svg><svg class="icon" width="200" height="200" viewBox="0 0 1024 1024" id="manage_fill" y="2200"><path fill="#333" d="M416.096 167.776H223.904A64 64 0 0 0 160 231.68v192.192a64 64 0 0 0 63.904 63.904h192.192A64 64 0 0 0 480 423.872V231.68a64 64 0 0 0-63.904-63.904M885.088 282.56L749.184 146.688a64 64 0 0 0-90.368 0L640 165.504 522.912 282.56a63.456 63.456 0 0 0-18.656 45.056 63.456 63.456 0 0 0 18.656 45.312l18.816 18.816L640 490.08l18.816 18.816a63.904 63.904 0 0 0 90.368-.032l117.088-117.12 18.816-18.784a63.936 63.936 0 0 0 0-90.368M416.096 551.776H223.904A64 64 0 0 0 160 615.68v192.192a64 64 0 0 0 63.904 63.904h192.192A64 64 0 0 0 480 807.872V615.68a64 64 0 0 0-63.904-63.904m384 0H607.904A64 64 0 0 0 544 615.68v192.192a64 64 0 0 0 63.904 63.904h192.192A64 64 0 0 0 864 807.872V615.68a64 64 0 0 0-63.904-63.904"></path></svg><svg class="icon" width="200" height="200" viewBox="0 0 1024 1024" id="message" y="2400"><path fill="#333" d="M800 704v17.888H615.872c-29.664 0-61.184 18.848-74.912 44.832L512 821.44l-28.96-54.752c-13.728-25.952-45.248-44.8-74.912-44.8H224V256h576v448zm5.312-512H218.688C186.336 192 160 219.488 160 253.248V724.64c0 33.76 26.4 61.248 58.816 61.248h189.312c5.92 0 15.712 5.728 18.368 10.752l38.048 71.968 2.912 4.544C478.624 887.68 494.848 896 512 896c17.152 0 33.376-8.32 44.544-22.848l40.96-76.512c2.464-4.608 11.968-10.752 18.368-10.752h189.472c32.352 0 58.656-27.488 58.656-61.248V253.248c0-33.76-26.336-61.248-58.688-61.248zM336 448c-12.352 0-23.488 4.8-32 12.448A47.68 47.68 0 0 0 288 496c0 14.176 6.24 26.752 16 35.552A47.68 47.68 0 0 0 336 544a48 48 0 0 0 0-96m352 0a48 48 0 0 0 0 96c12.352 0 23.488-4.8 32-12.448 9.76-8.8 16-21.376 16-35.552a47.68 47.68 0 0 0-16-35.552A47.68 47.68 0 0 0 688 448m-176 0c-12.352 0-23.488 4.8-32 12.448A47.68 47.68 0 0 0 464 496c0 14.176 6.24 26.752 16 35.552A47.68 47.68 0 0 0 512 544c12.352 0 23.488-4.8 32-12.448 9.76-8.8 16-21.376 16-35.552a47.68 47.68 0 0 0-16-35.552A47.68 47.68 0 0 0 512 448"></path></svg><svg class="icon" width="200" height="200" viewBox="0 0 1024 1024" id="message_fill" y="2600"><path fill="#333" d="M688 544a48 48 0 1 1 0-96 48 48 0 0 1 0 96m-176 0a48 48 0 1 1 0-96 48 48 0 0 1 0 96m-176 0a48 48 0 1 1-.032-95.968A48 48 0 0 1 336 544m469.312-352H218.688C186.336 192 160 219.488 160 253.248V724.64c0 33.792 26.4 61.248 58.816 61.248H408.16c5.888 0 15.648 5.728 18.304 10.752l38.08 71.968 2.912 4.544c11.136 14.496 27.36 22.816 44.48 22.848h.032c17.152 0 33.376-8.32 44.576-22.816l40.992-76.544c2.432-4.576 11.936-10.752 18.336-10.752h189.504c32.32 0 58.624-27.456 58.624-61.248V253.248c0-33.76-26.336-61.248-58.688-61.248"></path></svg><svg class="icon" width="200" height="200" viewBox="0 0 1024 1024" id="mine" y="2800"><path fill="#333" d="M512 832a318.432 318.432 0 0 1-215.648-84.256C351.264 729.984 443.008 704 509.952 704c68.064 0 162.048 26.976 216.608 44.704A318.24 318.24 0 0 1 512 832m0-224c-52.928 0-96-43.104-96-96.064v-95.872A96.16 96.16 0 0 1 512 320c52.928 0 96 43.104 96 96.064v95.872A96.16 96.16 0 0 1 512 608m0-416c176.448 0 320 143.552 320 320a318.016 318.016 0 0 1-59.136 184.704c-34.432-12-106.944-35.52-178.656-48.16C640.608 620.48 672 570.016 672 511.936v-95.872A160.224 160.224 0 0 0 512 256c-88.224 0-160 71.808-160 160.064v95.872C352 569.6 382.944 619.84 428.832 648c-70.656 12.16-142.464 35.104-178.528 47.584A317.952 317.952 0 0 1 192 512c0-176.448 143.552-320 320-320m0-64c-211.744 0-384 172.256-384 384s172.256 384 384 384 384-172.256 384-384-172.256-384-384-384"></path></svg><svg class="icon" width="200" height="200" viewBox="0 0 1024 1024" id="mine_fill" y="3000"><path fill="#333" d="M512 832a318.432 318.432 0 0 1-215.648-84.256C351.264 729.984 443.008 704 509.952 704c68.064 0 162.048 26.976 216.608 44.704A318.24 318.24 0 0 1 512 832zM352 507.328v-91.264A160.224 160.224 0 0 1 512 256c88.224 0 160 71.808 160 160.064v95.104c0 10.24-1.184 20.192-3.008 29.888l-.928 4.576a159.296 159.296 0 0 1-22.528 53.28l-1.984 2.944a163.2 163.2 0 0 1-41.056 40.96l-2.016 1.376A159.136 159.136 0 0 1 512 671.008a159.232 159.232 0 0 1-88.672-26.88l-1.792-1.248a162.144 162.144 0 0 1-41.12-41.024l-2.048-3.04a159.264 159.264 0 0 1-22.432-53.184l-.928-4.608A160.896 160.896 0 0 1 352 511.168v-3.84zM512 128c-211.744 0-384 172.256-384 384s172.256 384 384 384 384-172.256 384-384-172.256-384-384-384z"></path></svg><svg class="icon" width="200" height="200" viewBox="0 0 1024 1024" id="mobilephone" y="3200"><path fill="#333" d="M735.968 800L288 800.256V672h447.968v128zM288 223.744l.032.256L736 223.744 735.968 608H288V223.744zM735.968 160H288.032A63.968 63.968 0 0 0 224 223.744v576.512C224 835.392 252.704 864 288.032 864h447.936A63.968 63.968 0 0 0 800 800.256V223.744A63.968 63.968 0 0 0 735.968 160zM480 768h64a32 32 0 0 0 0-64h-64a32 32 0 0 0 0 64"></path></svg><svg class="icon" width="200" height="200" viewBox="0 0 1024 1024" id="mobilephone_fill" y="3400"><path fill="#333" d="M736 608H288l.032-384L736 223.744l.096 384.288L736 608zM544 768h-64a32 32 0 0 1 0-64h64a32 32 0 0 1 0 64zm191.968-608H288.032A64 64 0 0 0 224 223.744v576.512A64 64 0 0 0 288.032 864h447.936A64 64 0 0 0 800 800.256V223.744A64 64 0 0 0 735.968 160z"></path></svg><svg class="icon" width="200" height="200" viewBox="0 0 1024 1024" id="more" y="3600"><path fill="#333" d="M288 456.864A63.264 63.264 0 0 0 256 448a64 64 0 1 0 0 128c11.712 0 22.56-3.392 32-8.896 19.04-11.072 32-31.488 32-55.104 0-23.648-12.96-44.064-32-55.136m256 0A63.264 63.264 0 0 0 512 448c-11.712 0-22.56 3.36-32 8.864-19.04 11.072-32 31.488-32 55.136 0 23.616 12.96 44.032 32 55.104 9.44 5.504 20.288 8.896 32 8.896s22.56-3.392 32-8.896c19.04-11.072 32-31.488 32-55.104 0-23.648-12.96-44.064-32-55.136M768 448c-11.712 0-22.56 3.392-32 8.864-19.04 11.104-32 31.52-32 55.136 0 23.616 12.96 44.032 32 55.136 9.44 5.472 20.288 8.864 32 8.864a64 64 0 1 0 0-128"></path></svg><svg class="icon" width="200" height="200" viewBox="0 0 1024 1024" id="narrow" y="3800"><path fill="#333" d="M448.544 496H256a32 32 0 0 0 0 64l146.976-.192-233.6 233.568a32 32 0 0 0 45.248 45.248l233.664-233.632v147.264a32 32 0 1 0 64 0V559.744A63.84 63.84 0 0 0 448.544 496m390.08-294.624a31.968 31.968 0 0 0-45.248 0L576 418.752V272a32 32 0 0 0-64 0v192.544c0 35.136 28.608 63.712 63.744 63.712h192.512a32 32 0 1 0 0-64l-147.488.224 217.856-217.856a31.968 31.968 0 0 0 0-45.248"></path></svg><svg class="icon" width="200" height="200" viewBox="0 0 1024 1024" id="offline" y="4000"><path fill="#333" d="M512 832c-176.448 0-320-143.552-320-320s143.552-320 320-320 320 143.552 320 320-143.552 320-320 320m0-704c-211.744 0-384 172.256-384 384s172.256 384 384 384 384-172.256 384-384-172.256-384-384-384m133.536 345.6h-256a32 32 0 0 0 0 64h256a32 32 0 0 0 0-64"></path></svg><svg class="icon" width="200" height="200" viewBox="0 0 1024 1024" id="offline_fill" y="4200"><path fill="#333" d="M645.568 537.6h-256a32 32 0 0 1 0-64h256a32 32 0 0 1 0 64M512 128c-211.712 0-384 172.288-384 384 0 211.744 172.288 384 384 384 211.744 0 384-172.256 384-384 0-211.712-172.256-384-384-384"></path></svg><svg class="icon" width="200" height="200" viewBox="0 0 1024 1024" id="order" y="4400"><path fill="#333" d="M224 831.936v-639.84l-.256-.096 576.256.096.256 639.904L224 831.936zM800.256 128H223.744A64 64 0 0 0 160 192.096v639.84A64 64 0 0 0 223.744 896h576.512A64 64 0 0 0 864 831.936v-639.84A64 64 0 0 0 800.256 128zM640 416H384a32 32 0 0 0 0 64h256a32 32 0 0 0 0-64m0 160H384a32 32 0 0 0 0 64h256a32 32 0 0 0 0-64"></path></svg><svg class="icon" width="200" height="200" viewBox="0 0 1024 1024" id="order_fill" y="4600"><path fill="#333" d="M640 479.968H384a32 32 0 0 1 0-64h256a32 32 0 0 1 0 64m0 160H384a32 32 0 0 1 0-64h256a32 32 0 0 1 0 64M800.256 128H223.744A64 64 0 0 0 160 192.064v639.84A64 64 0 0 0 223.744 896h576.512A64 64 0 0 0 864 831.904v-639.84A64 64 0 0 0 800.256 128"></path></svg><svg class="icon" width="200" height="200" viewBox="0 0 1024 1024" id="other" y="4800"><path fill="#333" d="M779.776 480h-387.2a32 32 0 0 0 0 64h387.2a32 32 0 0 0 0-64m0 192h-387.2a32 32 0 0 0 0 64h387.2a32 32 0 0 0 0-64M256 288a32 32 0 1 0 0 64 32 32 0 0 0 0-64m136.576 64h387.2a32 32 0 0 0 0-64h-387.2a32 32 0 0 0 0 64M256 480a32 32 0 1 0 0 64 32 32 0 0 0 0-64m0 192a32 32 0 1 0 0 64 32 32 0 0 0 0-64"></path></svg><svg class="icon" width="200" height="200" viewBox="0 0 1024 1024" id="people" y="5000"><path fill="#333" d="M800 835.328l-574.496.032a2.464 2.464 0 0 1-1.504-.704V716c0-5.856 5.92-14.944 12.096-17.44 1.056-.448 69.408-30.272 149.952-50.464C427.296 637.76 471.68 629.888 512 629.888c36.64 0 76.736 6.496 114.816 15.456a1061.6 1061.6 0 0 1 161.856 53.536C793.984 701.056 800 710.176 800 716v119.36zM400.992 326.88A103.136 103.136 0 0 1 504.16 224a103.168 103.168 0 0 1 103.2 102.88v123.104a103.168 103.168 0 0 1-103.2 102.88 103.136 103.136 0 0 1-103.168-102.88V326.88zM813.728 640c-3.904-1.728-58.56-25.6-129.312-45.76a883.616 883.616 0 0 0-72.608-17.6c36.096-30.592 59.552-75.68 59.552-126.656V326.88A167.168 167.168 0 0 0 504.192 160c-92.16 0-167.2 74.72-167.2 166.88v123.104c0 52.352 24.768 98.624 62.72 129.28-25.472 5.376-50.112 11.872-72.8 18.656a1098.656 1098.656 0 0 0-115.648 41.664C182.016 651.328 160 684.192 160 716v131.68l1.696 4.992c9.504 27.936 35.136 46.72 63.808 46.72h572.992a65.536 65.536 0 0 0 64.96-56.96l.544-126.4c0-31.616-21.952-64.416-50.272-76.032z"></path></svg><svg class="icon" width="200" height="200" viewBox="0 0 1024 1024" id="people_fill" y="5200"><path fill="#333" d="M813.728 640c-3.904-1.728-58.56-25.6-129.312-45.792a883.616 883.616 0 0 0-72.608-17.568c36.096-30.592 59.552-75.68 59.552-126.656V326.88A167.168 167.168 0 0 0 504.192 160c-92.16 0-167.2 74.72-167.2 166.88v123.104c0 52.352 24.768 98.624 62.72 129.248-25.472 5.408-50.112 11.904-72.8 18.688a1098.656 1098.656 0 0 0-115.648 41.664C182.016 651.328 160 684.192 160 716v131.68l1.696 4.992c9.504 27.936 35.136 46.688 63.808 46.688h572.992a65.536 65.536 0 0 0 64.96-56.96L864 716c0-31.584-21.952-64.384-50.272-76"></path></svg><svg class="icon" width="200" height="200" viewBox="0 0 1024 1024" id="picture" y="5400"><path fill="#333" d="M392.32 800.192l242.912-242.944L800.224 722.24l.032 77.76-407.968.192zM224 224l576-.256.192 407.968-142.336-142.336a31.968 31.968 0 0 0-45.248 0L301.76 800.224H224V224zm576.256-64H223.712a63.808 63.808 0 0 0-63.68 63.744v576.512C160 835.424 188.544 864 223.68 864h576.544A63.808 63.808 0 0 0 864 800.256V223.744A63.84 63.84 0 0 0 800.256 160zM416 384a31.68 31.68 0 0 1 32 32 31.68 31.68 0 0 1-32 32 31.68 31.68 0 0 1-32-32c0-17.952 14.048-32 32-32m0 128c52.928 0 96-43.072 96-96s-43.072-96-96-96-96 43.072-96 96 43.072 96 96 96"></path></svg><svg class="icon" width="200" height="200" viewBox="0 0 1024 1024" id="picture_fill" y="5600"><path fill="#333" d="M799.936 721.984V800l-407.648.16.064-.032-90.496.032.96-.96 332.448-317.952 164.704 150.24v90.496zM416 320c52.96 0 96 43.072 96 96s-43.04 96-96 96c-52.928 0-96-43.072-96-96s43.072-96 96-96zm384.32-160H223.744A63.776 63.776 0 0 0 160 223.744v576.512C160 835.392 188.576 864 223.744 864H800.32A63.84 63.84 0 0 0 864 800.256V223.744A63.808 63.808 0 0 0 800.32 160z"></path></svg><svg class="icon" width="200" height="200" viewBox="0 0 1024 1024" id="play" y="5800"><path fill="#333" d="M384 752.288l299.68-231.552L384 289.152V752.32zm-64 65.152V224a32 32 0 0 1 51.552-25.312l384 296.704a32 32 0 0 1 0 50.656l-384 296.736A32 32 0 0 1 320 817.44z"></path></svg></svg>